# xmcd
#
# Track frame offsets: 
#        182
#        15175
#        31150
#        46392
#        58645
#        77800
#        89090
#        99517
#        112250
#        126397
#        137895
#
# Disc length: 1990 seconds
#
# Revision: 0
# Processed by: cddbd v1.5.1PL0 Copyright (c) Steve Scherf et al.
# Submitted via: ExactAudioCopy v0.95b1
#
DISCID=9307c40b
DTITLE=Dream Shelter Harmonica - Welcome to New York City
DYEAR=1900
DGENRE=Country
TTITLE0=Indian Melody
TTITLE1=Appointment To Town
TTITLE2=Small Baby And Little Man
TTITLE3=Out Of The Dream
TTITLE4=Mexico
TTITLE5=Indian Melody 2
TTITLE6=Dakota
TTITLE7=Every Body Dancing
TTITLE8=Welcome to New York City
TTITLE9=Goodbye Cathy
TTITLE10=Harmo Boogie
EXTD=
EXTT0=
EXTT1=
EXTT2=
EXTT3=
EXTT4=
EXTT5=
EXTT6=
EXTT7=
EXTT8=
EXTT9=
EXTT10=
PLAYORDER=
